# Blender v2.92.0 OBJ File: ''
# www.blender.org
mtllib ceiling_light.mtl
o Cube_Cube.002
v 1.000000 -0.450000 1.000000
v 1.000000 -0.450000 -1.000000
v -1.000000 -0.450000 -1.000000
v -1.000000 -0.450000 1.000000
v -1.000000 -0.450000 1.000000
v -1.000000 -1.050000 1.000000
v 1.000000 -1.050000 1.000000
v 1.000000 -0.450000 1.000000
v -1.000000 -0.450000 -1.000000
v -1.000000 -1.050000 -1.000000
v -1.000000 -1.050000 1.000000
v -1.000000 -0.450000 1.000000
v -0.900000 -0.750000 0.900000
v -0.900000 -1.050000 0.900000
v -0.900000 -1.050000 -0.900000
v -0.900000 -0.750000 -0.900000
v 1.000000 -0.450000 1.000000
v 1.000000 -1.050000 1.000000
v 1.000000 -1.050000 -1.000000
v 1.000000 -0.450000 -1.000000
v 1.000000 -0.450000 -1.000000
v 1.000000 -1.050000 -1.000000
v -1.000000 -1.050000 -1.000000
v -1.000000 -0.450000 -1.000000
v -1.000000 -1.050000 1.000000
v -1.000000 -1.050000 -1.000000
v -0.900000 -1.050000 -0.900000
v -0.900000 -1.050000 0.900000
v -0.900000 -1.050000 -0.900000
v -1.000000 -1.050000 -1.000000
v 1.000000 -1.050000 -1.000000
v 0.900000 -1.050000 -0.900000
v -1.000000 -1.050000 1.000000
v -0.900000 -1.050000 0.900000
v 0.900000 -1.050000 0.900000
v 1.000000 -1.050000 1.000000
v 0.900000 -1.050000 -0.900000
v 1.000000 -1.050000 -1.000000
v 1.000000 -1.050000 1.000000
v 0.900000 -1.050000 0.900000
v -0.900000 -0.750000 0.900000
v -0.900000 -0.750000 -0.900000
v 0.900000 -0.750000 -0.900000
v 0.900000 -0.750000 0.900000
v 0.900000 -0.750000 -0.900000
v 0.900000 -1.050000 -0.900000
v 0.900000 -1.050000 0.900000
v 0.900000 -0.750000 0.900000
v -0.900000 -0.750000 -0.900000
v -0.900000 -1.050000 -0.900000
v 0.900000 -1.050000 -0.900000
v 0.900000 -0.750000 -0.900000
v 0.900000 -0.750000 0.900000
v 0.900000 -1.050000 0.900000
v -0.900000 -1.050000 0.900000
v -0.900000 -0.750000 0.900000
vt 0.625000 0.750000
vt 0.625000 0.500000
vt 0.875000 0.500000
vt 0.875000 0.750000
vt 0.625000 1.000000
vt 0.375000 1.000000
vt 0.375000 0.750000
vt 0.625000 0.750000
vt 0.625000 0.250000
vt 0.375000 0.250000
vt 0.375000 0.000000
vt 0.625000 0.000000
vt 0.137500 0.737500
vt 0.137500 0.737500
vt 0.137500 0.512500
vt 0.137500 0.512500
vt 0.625000 0.750000
vt 0.375000 0.750000
vt 0.375000 0.500000
vt 0.625000 0.500000
vt 0.625000 0.500000
vt 0.375000 0.500000
vt 0.375000 0.250000
vt 0.625000 0.250000
vt 0.125000 0.750000
vt 0.125000 0.500000
vt 0.137500 0.512500
vt 0.137500 0.737500
vt 0.137500 0.512500
vt 0.125000 0.500000
vt 0.375000 0.500000
vt 0.362500 0.512500
vt 0.125000 0.750000
vt 0.137500 0.737500
vt 0.362500 0.737500
vt 0.375000 0.750000
vt 0.362500 0.512500
vt 0.375000 0.500000
vt 0.375000 0.750000
vt 0.362500 0.737500
vt 0.137500 0.737500
vt 0.137500 0.512500
vt 0.362500 0.512500
vt 0.362500 0.737500
vt 0.362500 0.512500
vt 0.362500 0.512500
vt 0.362500 0.737500
vt 0.362500 0.737500
vt 0.137500 0.512500
vt 0.137500 0.512500
vt 0.362500 0.512500
vt 0.362500 0.512500
vt 0.362500 0.737500
vt 0.362500 0.737500
vt 0.137500 0.737500
vt 0.137500 0.737500
vn 0.0000 1.0000 0.0000
vn 0.0000 0.0000 1.0000
vn -1.0000 0.0000 0.0000
vn 1.0000 0.0000 0.0000
vn 0.0000 0.0000 -1.0000
vn 0.0000 -1.0000 0.0000
usemtl DullAluminum
s off
f 1/1/1 2/2/1 3/3/1
f 1/1/1 3/3/1 4/4/1
f 5/5/2 6/6/2 7/7/2
f 5/5/2 7/7/2 8/8/2
f 9/9/3 10/10/3 11/11/3
f 9/9/3 11/11/3 12/12/3
f 13/13/4 14/14/4 15/15/4
f 13/13/4 15/15/4 16/16/4
f 17/17/4 18/18/4 19/19/4
f 17/17/4 19/19/4 20/20/4
f 21/21/5 22/22/5 23/23/5
f 21/21/5 23/23/5 24/24/5
f 25/25/6 26/26/6 27/27/6
f 25/25/6 27/27/6 28/28/6
f 29/29/6 30/30/6 31/31/6
f 29/29/6 31/31/6 32/32/6
f 33/33/6 34/34/6 35/35/6
f 33/33/6 35/35/6 36/36/6
f 37/37/6 38/38/6 39/39/6
f 40/40/6 37/37/6 39/39/6
f 41/41/6 42/42/6 43/43/6
f 41/41/6 43/43/6 44/44/6
f 45/45/3 46/46/3 47/47/3
f 45/45/3 47/47/3 48/48/3
f 49/49/2 50/50/2 51/51/2
f 49/49/2 51/51/2 52/52/2
f 53/53/5 54/54/5 55/55/5
f 53/53/5 55/55/5 56/56/5
o Cylinder
v 0.950000 -0.643934 0.393934
v -0.950000 -0.643934 0.393934
v -0.950000 -0.600000 0.500000
v 0.950000 -0.600000 0.500000
v 0.950000 -0.750000 0.350000
v -0.950000 -0.750000 0.350000
v 0.950000 -0.856066 0.393934
v -0.950000 -0.856066 0.393934
v 0.950000 -0.900000 0.500000
v -0.950000 -0.900000 0.500000
v 0.950000 -0.856066 0.606066
v -0.950000 -0.856066 0.606066
v 0.950000 -0.750000 0.650000
v -0.950000 -0.750000 0.650000
v 0.950000 -0.643934 0.393934
v 0.950000 -0.600000 0.500000
v 0.950000 -0.643934 0.606066
v 0.950000 -0.750000 0.350000
v 0.950000 -0.750000 0.650000
v 0.950000 -0.856066 0.606066
v 0.950000 -0.856066 0.393934
v 0.950000 -0.900000 0.500000
v 0.950000 -0.643934 0.606066
v -0.950000 -0.643934 0.606066
v 0.950000 -0.600000 0.500000
v -0.950000 -0.600000 0.500000
v -0.950000 -0.643934 0.606066
v -0.950000 -0.600000 0.500000
v -0.950000 -0.643934 0.393934
v -0.950000 -0.750000 0.350000
v -0.950000 -0.750000 0.650000
v -0.950000 -0.856066 0.606066
v -0.950000 -0.856066 0.393934
v -0.950000 -0.900000 0.500000
vt 0.875000 1.000000
vt 0.875000 0.500000
vt 1.000000 0.500000
vt 1.000000 1.000000
vt 0.750000 1.000000
vt 0.750000 0.500000
vt 0.625000 1.000000
vt 0.625000 0.500000
vt 0.500000 1.000000
vt 0.500000 0.500000
vt 0.375000 1.000000
vt 0.375000 0.500000
vt 0.250000 1.000000
vt 0.250000 0.500000
vt 0.419706 0.419706
vt 0.250000 0.490000
vt 0.080294 0.419706
vt 0.490000 0.250000
vt 0.010000 0.250000
vt 0.080294 0.080294
vt 0.419706 0.080294
vt 0.250000 0.010000
vt 0.125000 1.000000
vt 0.125000 0.500000
vt 0.000000 1.000000
vt 0.000000 0.500000
vt 0.580294 0.419706
vt 0.750000 0.490000
vt 0.919706 0.419706
vt 0.990000 0.250000
vt 0.510000 0.250000
vt 0.580294 0.080294
vt 0.919706 0.080294
vt 0.750000 0.010000
vn 0.6303 0.5490 -0.5490
vn -0.6303 0.5491 -0.5489
vn -0.6303 0.7763 -0.0000
vn 0.6303 0.7763 -0.0000
vn 0.6303 -0.0001 -0.7764
vn -0.6303 0.0001 -0.7764
vn 0.6303 -0.5491 -0.5489
vn -0.6303 -0.5490 -0.5490
vn 0.6303 -0.7764 -0.0001
vn -0.6303 -0.7764 -0.0001
vn 0.6303 -0.5490 0.5490
vn -0.6303 -0.5490 0.5489
vn 0.6303 0.0002 0.7764
vn -0.6303 -0.0000 0.7764
vn 0.6303 0.7764 -0.0000
vn 0.6303 0.5490 0.5490
vn 0.6303 -0.0000 -0.7764
vn 0.6303 -0.0000 0.7764
vn 0.6303 -0.5490 -0.5490
vn 0.6303 -0.7764 -0.0000
vn -0.6303 0.5490 0.5490
vn -0.6303 0.7764 0.0000
vn -0.6303 0.5490 -0.5490
vn -0.6303 0.0000 -0.7764
vn -0.6303 -0.5490 0.5490
vn -0.6303 -0.7764 0.0000
usemtl Light
s 1
f 57/57/7 58/58/8 59/59/9
f 57/57/7 59/59/9 60/60/10
f 61/61/11 62/62/12 58/58/8
f 61/61/11 58/58/8 57/57/7
f 63/63/13 64/64/14 62/62/12
f 63/63/13 62/62/12 61/61/11
f 65/65/15 66/66/16 64/64/14
f 65/65/15 64/64/14 63/63/13
f 67/67/17 68/68/18 66/66/16
f 67/67/17 66/66/16 65/65/15
f 69/69/19 70/70/20 68/68/18
f 69/69/19 68/68/18 67/67/17
f 71/71/7 72/72/21 73/73/22
f 74/74/23 71/71/7 73/73/22
f 74/74/23 73/73/22 75/75/24
f 74/74/23 75/75/24 76/76/17
f 77/77/25 74/74/23 76/76/17
f 77/77/25 76/76/17 78/78/26
f 79/79/22 80/80/27 70/70/20
f 79/79/22 70/70/20 69/69/19
f 81/81/10 82/82/9 80/80/27
f 81/81/10 80/80/27 79/79/22
f 83/83/27 84/84/28 85/85/29
f 83/83/27 85/85/29 86/86/30
f 87/87/20 83/83/27 86/86/30
f 88/88/31 87/87/20 86/86/30
f 88/88/31 86/86/30 89/89/14
f 90/90/32 88/88/31 89/89/14
o Cylinder.001
v 0.950000 -0.643934 -0.606066
v -0.950000 -0.643934 -0.606066
v -0.950000 -0.600000 -0.500000
v 0.950000 -0.600000 -0.500000
v 0.950000 -0.750000 -0.650000
v -0.950000 -0.750000 -0.650000
v 0.950000 -0.856066 -0.606066
v -0.950000 -0.856066 -0.606066
v 0.950000 -0.900000 -0.500000
v -0.950000 -0.900000 -0.500000
v 0.950000 -0.856066 -0.393934
v -0.950000 -0.856066 -0.393934
v 0.950000 -0.750000 -0.350000
v -0.950000 -0.750000 -0.350000
v 0.950000 -0.643934 -0.606066
v 0.950000 -0.600000 -0.500000
v 0.950000 -0.643934 -0.393934
v 0.950000 -0.750000 -0.650000
v 0.950000 -0.750000 -0.350000
v 0.950000 -0.856066 -0.393934
v 0.950000 -0.856066 -0.606066
v 0.950000 -0.900000 -0.500000
v 0.950000 -0.643934 -0.393934
v -0.950000 -0.643934 -0.393934
v 0.950000 -0.600000 -0.500000
v -0.950000 -0.600000 -0.500000
v -0.950000 -0.643934 -0.393934
v -0.950000 -0.600000 -0.500000
v -0.950000 -0.643934 -0.606066
v -0.950000 -0.750000 -0.650000
v -0.950000 -0.750000 -0.350000
v -0.950000 -0.856066 -0.393934
v -0.950000 -0.856066 -0.606066
v -0.950000 -0.900000 -0.500000
vt 0.875000 1.000000
vt 0.875000 0.500000
vt 1.000000 0.500000
vt 1.000000 1.000000
vt 0.750000 1.000000
vt 0.750000 0.500000
vt 0.625000 1.000000
vt 0.625000 0.500000
vt 0.500000 1.000000
vt 0.500000 0.500000
vt 0.375000 1.000000
vt 0.375000 0.500000
vt 0.250000 1.000000
vt 0.250000 0.500000
vt 0.419706 0.419706
vt 0.250000 0.490000
vt 0.080294 0.419706
vt 0.490000 0.250000
vt 0.010000 0.250000
vt 0.080294 0.080294
vt 0.419706 0.080294
vt 0.250000 0.010000
vt 0.125000 1.000000
vt 0.125000 0.500000
vt 0.000000 1.000000
vt 0.000000 0.500000
vt 0.580294 0.419706
vt 0.750000 0.490000
vt 0.919706 0.419706
vt 0.990000 0.250000
vt 0.510000 0.250000
vt 0.580294 0.080294
vt 0.919706 0.080294
vt 0.750000 0.010000
vn 0.6303 0.5490 -0.5490
vn -0.6303 0.5491 -0.5489
vn -0.6303 0.7763 -0.0000
vn 0.6303 0.7763 -0.0000
vn 0.6303 -0.0001 -0.7764
vn -0.6303 0.0001 -0.7764
vn 0.6303 -0.5491 -0.5489
vn -0.6303 -0.5490 -0.5490
vn 0.6303 -0.7764 0.0001
vn -0.6303 -0.7764 0.0001
vn 0.6303 -0.5490 0.5490
vn -0.6303 -0.5491 0.5489
vn 0.6303 0.0001 0.7764
vn -0.6303 -0.0000 0.7764
vn 0.6303 0.7764 -0.0000
vn 0.6303 0.5490 0.5490
vn 0.6303 -0.0000 -0.7764
vn 0.6303 -0.0000 0.7764
vn 0.6303 -0.5490 -0.5490
vn 0.6303 -0.7764 -0.0000
vn -0.6303 0.5490 0.5490
vn -0.6303 0.7764 0.0000
vn -0.6303 0.5490 -0.5490
vn -0.6303 0.0000 -0.7764
vn -0.6303 -0.5490 0.5490
vn -0.6303 -0.7764 0.0000
usemtl Light
s 1
f 91/91/33 92/92/34 93/93/35
f 91/91/33 93/93/35 94/94/36
f 95/95/37 96/96/38 92/92/34
f 95/95/37 92/92/34 91/91/33
f 97/97/39 98/98/40 96/96/38
f 97/97/39 96/96/38 95/95/37
f 99/99/41 100/100/42 98/98/40
f 99/99/41 98/98/40 97/97/39
f 101/101/43 102/102/44 100/100/42
f 101/101/43 100/100/42 99/99/41
f 103/103/45 104/104/46 102/102/44
f 103/103/45 102/102/44 101/101/43
f 105/105/33 106/106/47 107/107/48
f 108/108/49 105/105/33 107/107/48
f 108/108/49 107/107/48 109/109/50
f 108/108/49 109/109/50 110/110/43
f 111/111/51 108/108/49 110/110/43
f 111/111/51 110/110/43 112/112/52
f 113/113/48 114/114/53 104/104/46
f 113/113/48 104/104/46 103/103/45
f 115/115/36 116/116/35 114/114/53
f 115/115/36 114/114/53 113/113/48
f 117/117/53 118/118/54 119/119/55
f 117/117/53 119/119/55 120/120/56
f 121/121/46 117/117/53 120/120/56
f 122/122/57 121/121/46 120/120/56
f 122/122/57 120/120/56 123/123/40
f 124/124/58 122/122/57 123/123/40
o Plane
v 1.000000 -1.051000 1.000000
v 1.000000 -1.051000 -1.000000
v -1.000000 -1.051000 -1.000000
v -1.000000 -1.051000 1.000000
vt 1.000000 0.000000
vt 1.000000 1.000000
vt 0.000000 1.000000
vt 0.000000 0.000000
vn 0.0000 1.0000 0.0000
usemtl Grating
s off
f 125/125/59 126/126/59 127/127/59
f 125/125/59 127/127/59 128/128/59
